<svg width="350" height="350" viewBox="0 0 350 350" fill="none" xmlns="http://www.w3.org/2000/svg">
<rect x="10" y="10" width="330" height="330" rx="20" stroke="black" stroke-width="20"/>
<path d="M146 282L100 282C88.9543 282 80 273.046 80 262L80 71L126 71C137.046 71 146 79.9543 146 91L146 282Z" fill="black"/>
<path d="M197 76C197 73.2386 199.239 71 202 71H256C265.389 71 273 78.6112 273 88V159C273 161.761 270.761 164 268 164H214C204.611 164 197 156.389 197 147V76Z" fill="black"/>
<path d="M197 194C197 191.239 199.239 189 202 189H256C265.389 189 273 196.611 273 206V277C273 279.761 270.761 282 268 282H214C204.611 282 197 274.389 197 265V194Z" fill="black"/>
</svg>